<svg xmlns="http://www.w3.org/2000/svg" xmlns:xlink="http://www.w3.org/1999/xlink" viewBox="0 0 500 500"><defs><style>.cls-1{fill:url(#radial-gradient);}.cls-2{fill:url(#radial-gradient-2);}.cls-3{fill:url(#linear-gradient);}.cls-4,.cls-7,.cls-8,.cls-9{fill:none;}.cls-4{stroke:#fff;}.cls-4,.cls-8{stroke-linecap:round;stroke-width:7px;}.cls-4,.cls-8,.cls-9{stroke-linejoin:round;}.cls-5{fill:#999;}.cls-6,.cls-7,.cls-8,.cls-9{stroke:#000;}.cls-6{stroke-miterlimit:10;stroke-width:4px;fill:url(#radial-gradient-3);}.cls-7{stroke-linejoin:bevel;stroke-width:5px;}.cls-9{stroke-width:8px;}</style><radialGradient id="radial-gradient" cx="250" cy="250" fx="462.3333645182927" r="250" gradientTransform="translate(842.56) rotate(90) scale(1 2.37)" gradientUnits="userSpaceOnUse"><stop offset="0" stop-color="#5c164e"/><stop offset="0.24" stop-color="#6c1b59"/><stop offset="1" stop-color="#9b287b"/></radialGradient><radialGradient id="radial-gradient-2" cx="250" cy="235.55" r="203.04" gradientUnits="userSpaceOnUse"><stop offset="0" stop-color="#ff0"/><stop offset="0.02" stop-color="#fffb03" stop-opacity="0.97"/><stop offset="0.04" stop-color="#feef0c" stop-opacity="0.9"/><stop offset="0.08" stop-color="#fddc1a" stop-opacity="0.79"/><stop offset="0.11" stop-color="#fcc32d" stop-opacity="0.63"/><stop offset="0.14" stop-color="#fbb03b" stop-opacity="0.51"/><stop offset="0.52" stop-color="#fdd71e" stop-opacity="0.26"/><stop offset="0.84" stop-color="#fef408" stop-opacity="0.07"/><stop offset="1" stop-color="#ff0" stop-opacity="0"/></radialGradient><linearGradient id="linear-gradient" x1="161.28" y1="292.7" x2="360.19" y2="177.86" gradientUnits="userSpaceOnUse"><stop offset="0" stop-color="#ff0"/><stop offset="0.54" stop-color="#fbb03b"/><stop offset="1" stop-color="#f15a24"/></linearGradient><radialGradient id="radial-gradient-3" cx="250.95" cy="453.02" r="16.96" gradientUnits="userSpaceOnUse"><stop offset="0" stop-color="#ff0"/><stop offset="0.07" stop-color="#fffb03" stop-opacity="0.97"/><stop offset="0.18" stop-color="#feef0c" stop-opacity="0.9"/><stop offset="0.32" stop-color="#fddc1a" stop-opacity="0.79"/><stop offset="0.49" stop-color="#fcc32d" stop-opacity="0.63"/><stop offset="0.59" stop-color="#fbb03b" stop-opacity="0.51"/><stop offset="0.73" stop-color="#fcc928" stop-opacity="0.35"/><stop offset="1" stop-color="#ff0" stop-opacity="0"/></radialGradient></defs><title>icon</title><g id="Layer_3" data-name="Layer 3"><rect class="cls-1" width="500" height="500"/><circle class="cls-2" cx="250" cy="235.55" r="203.04"/></g><g id="Layer_2" data-name="Layer 2"><path class="cls-3" d="M207.59,378.32c-1.49-5.12-5.92-12.3-10.07-18.31.34-16.22-2.76-33.43-3.18-35.66-.22-2.84-2.77-22.93-32-90.19-12.56-28.89-13-56.65-1.4-82.51,8.66-19.27,21.05-30.09,21.17-30.2,22.87-19,46.53-28.67,70.28-28.67,40.38,0,67.56,28.15,67.83,28.43l.2.2a101.47,101.47,0,0,1,22,32.55c11.58,27.11,10.14,55.39-4.29,84.07C304,305.84,304.29,353.79,304.53,360.57c-3.19,8.28-10.23,15.61-10.3,15.68a3.57,3.57,0,0,0-1,2.07Z"/><path d="M252.36,96.28c38.67,0,65,27.08,65.3,27.34a4.78,4.78,0,0,0,.39.39c.13.11,12.61,11.47,21.05,31.07a89.61,89.61,0,0,1,7.49,35.42c.05,15.13-3.85,30.59-11.58,45.95-33.39,66.34-34.2,114.17-34,123.49-3,7.32-9.23,13.81-9.29,13.87a7.79,7.79,0,0,0-.81,1H210.12a69.6,69.6,0,0,0-4.43-8.51c-1.73-2.92-3.5-5.61-4.65-7.34a203.24,203.24,0,0,0-3.22-35.08c-.37-4.23-3.63-25.21-32.3-91.13-12.06-27.73-12.62-54.35-1.66-79.14a91.89,91.89,0,0,1,20.48-29.49c22.25-18.48,45.13-27.85,68-27.85m0-7c-21.18,0-45.93,7.38-72.57,29.52,0,0-52,44.84-20.69,116.75s31.76,89.24,31.76,89.24,3.67,19.13,3.13,36.27c0,0,11.61,16.61,10.59,20.76h92.16v-3.13s7.94-8.18,11.31-17.57c0,0-2.88-49.81,33.21-121.52s-18.53-120.8-18.53-120.8-28-29.52-70.37-29.52Z"/><polygon class="cls-4" points="250.3 377.7 224.3 257.4 250.44 240.22 276.57 257.4 250.3 377.7"/><path class="cls-5" d="M251.06,465c-20.42,0-24.92-12.34-25.1-12.86a2.53,2.53,0,0,0-1.74-1.62c-8.7-2.28-12.11-10.46-12.15-10.55a2.49,2.49,0,0,0-1.57-1.45,5.94,5.94,0,0,1-1.51-.77,4.34,4.34,0,0,1,.58-.5c2.68-2,3.22-4.13,3.2-5.56,0-3.13-2.71-5.12-3-5.34l-.24-.14a7.5,7.5,0,0,1-2-1.68,2.65,2.65,0,0,1,.34-.21c2.54-1.4,3.89-3.09,4-5a4.73,4.73,0,0,0-1.93-4,2.39,2.39,0,0,0-.34-.21,7.89,7.89,0,0,1-3.09-2.57,3.33,3.33,0,0,1,1.1-.82c3.11-1.67,4-3.87,4.16-5.42.36-3-1.64-5.74-2.85-7.07V384.32h82.73a1.93,1.93,0,0,0,0,.24l-.11,9.44c-1,1.27-2.53,3.73-2.05,6.35a5.74,5.74,0,0,0,3.45,4.18,3.63,3.63,0,0,1,.79.46,3.56,3.56,0,0,1-.39.39c-.93.59-4.38,3-4.31,6.28,0,1.3.6,3.14,3.17,4.58,1,.56,1.12.94,1.12.94a2.34,2.34,0,0,1-.74,1.07c-.43.36-3.75,3.28-3.47,6.86a6.08,6.08,0,0,0,3.25,4.8,4.6,4.6,0,0,1,.87.65,3.79,3.79,0,0,1-.7.53,2.35,2.35,0,0,0-.67.5l-2.65,2.76a2.53,2.53,0,0,0-.69,1.62c-.4,9-11.55,14.27-11.66,14.32a2.51,2.51,0,0,0-1.38,1.68c-.14.51-3.6,12.91-24.11,13Z"/><path d="M289.07,386.82l-.07,6.36a10.42,10.42,0,0,0-2,7.63,7.84,7.84,0,0,0,2.5,4.42,8.93,8.93,0,0,0-3,6.48,7.48,7.48,0,0,0,3.16,5.87c-1.4,1.54-3.34,4.33-3.08,7.73a8.26,8.26,0,0,0,2.65,5.38l-1.85,1.94a5,5,0,0,0-1.39,3.23c-.33,7.47-10.11,12.12-10.2,12.16a4.71,4.71,0,0,0-2.77,3.33c-.25.85-3.69,11-21.69,11.13h-.25c-18.1,0-22.41-10.33-22.73-11.16a4.76,4.76,0,0,0-3.47-3.24c-7.43-1.95-10.35-8.79-10.46-9a5.07,5.07,0,0,0-1.2-1.82,8.39,8.39,0,0,0,2.07-5.58,9.5,9.5,0,0,0-3.62-7,7.62,7.62,0,0,0,2.68-5.21,7.17,7.17,0,0,0-3-6.17,4,4,0,0,0-.66-.41l-.19-.1a9,9,0,0,0,3.69-6.2c.41-3.49-1.35-6.47-2.83-8.29V386.82h77.69m3,16.37h0m4.66-21.37h0Zm0,0H204.58l1.8,2.4v16s6.5,5.77,0,9.26,2.05,7.82,2.05,7.82,3,2.17-1.82,4.81,1.7,6.26,1.7,6.26,4.57,3.25-.24,6.86,1.68,5.65,1.68,5.65,3.73,9.39,13.84,12c0,0,4.8,14.56,27.47,14.56h.28c22.9-.12,26.51-14.91,26.51-14.91s12.64-5.78,13.12-16.49l2.65-2.77s4.93-2.52,0-5.53.48-7.58.48-7.58,4.21-3.37-.73-6.14,1.33-6.61,1.33-6.61,4.06-2.88-.72-5.18,0-7.34,0-7.34l.12-10.34,2.64-2.77Z"/><line class="cls-4" x1="224.3" y1="257.4" x2="206.26" y2="240.22"/><line class="cls-4" x1="276.57" y1="257.4" x2="293.74" y2="240.22"/><line class="cls-6" x1="226.96" y1="453.18" x2="274.95" y2="452.86"/><path class="cls-7" d="M208.43,400.17s49.91.35,83.14-5.18"/><path class="cls-7" d="M208.43,412.74s52.59-1.95,85.82-7.47"/><path class="cls-7" d="M208.43,424.65s50.25-1.66,83.48-7.18"/><path class="cls-7" d="M210,437.41s48.69-1,81.92-6.5"/><path class="cls-8" d="M171.48,192.51s9.27-81.78,87.6-81.78"/><line class="cls-9" x1="204.58" y1="377.7" x2="296.74" y2="377.7"/></g></svg>